<?xml version="1.0" encoding="UTF-8" standalone="no"?>
<!-- Created with Inkscape (http://www.inkscape.org/) -->

<svg
   xmlns:dc="http://purl.org/dc/elements/1.1/"
   xmlns:cc="http://creativecommons.org/ns#"
   xmlns:rdf="http://www.w3.org/1999/02/22-rdf-syntax-ns#"
   xmlns:svg="http://www.w3.org/2000/svg"
   xmlns="http://www.w3.org/2000/svg"
   xmlns:sodipodi="http://sodipodi.sourceforge.net/DTD/sodipodi-0.dtd"
   xmlns:inkscape="http://www.inkscape.org/namespaces/inkscape"
   width="210mm"
   height="297mm"
   viewBox="0 0 744.09448819 1052.3622047"
   id="svg2"
   version="1.1"
   inkscape:version="0.91 r13725"
   sodipodi:docname="site_title.svg">
  <defs
     id="defs4" />
  <sodipodi:namedview
     id="base"
     pagecolor="#ffffff"
     bordercolor="#666666"
     borderopacity="1.0"
     inkscape:pageopacity="0.0"
     inkscape:pageshadow="2"
     inkscape:zoom="2.8"
     inkscape:cx="396.15011"
     inkscape:cy="303.6022"
     inkscape:document-units="px"
     inkscape:current-layer="g4192"
     showgrid="false"
     inkscape:object-nodes="true"
     showguides="false"
     inkscape:guide-bbox="true"
     inkscape:window-width="1920"
     inkscape:window-height="1051"
     inkscape:window-x="0"
     inkscape:window-y="1"
     inkscape:window-maximized="1">
    <sodipodi:guide
       position="290.17857,276.07144"
       orientation="0,1"
       id="guide4248" />
  </sodipodi:namedview>
  <metadata
     id="metadata7">
    <rdf:RDF>
      <cc:Work
         rdf:about="">
        <dc:format>image/svg+xml</dc:format>
        <dc:type
           rdf:resource="http://purl.org/dc/dcmitype/StillImage" />
        <dc:title></dc:title>
      </cc:Work>
    </rdf:RDF>
  </metadata>
  <g
     inkscape:label="Layer 1"
     inkscape:groupmode="layer"
     id="layer1">
    <g
       style="font-style:normal;font-variant:normal;font-weight:normal;font-stretch:normal;font-size:40px;line-height:125%;font-family:'Ubuntu Condensed';-inkscape-font-specification:'Ubuntu Condensed, ';letter-spacing:0px;word-spacing:0px;fill:#000000;fill-opacity:1;stroke:none;stroke-width:1px;stroke-linecap:butt;stroke-linejoin:miter;stroke-opacity:1"
       id="text4136">
      <g
         id="g4192"
         transform="matrix(0.99994164,0.01080379,-0.01080379,0.99994164,6.5210019,-0.98898752)">
        <path
           inkscape:connector-curvature="0"
           d="m 266.83063,770.56562 q 2.69584,0.14982 4.22685,-1.26741 1.58092,-1.41445 1.72242,-3.96052 0.0749,-1.34792 -0.31614,-2.42127 -0.39104,-1.07335 -1.09272,-1.96366 -0.65174,-0.88753 -1.56144,-1.63917 -0.90969,-0.75164 -1.86931,-1.50605 -1.10384,-0.86259 -2.30197,-1.83056 -1.19814,-0.96797 -2.17993,-2.22439 -0.93187,-1.25364 -1.49209,-2.88725 -0.56021,-1.6336 -0.44091,-3.78028 0.11654,-2.09676 0.90979,-3.75531 0.84318,-1.65576 2.15784,-2.78455 1.36458,-1.12601 3.14795,-1.6779 1.8333,-0.54912 3.88014,-0.43537 1.99692,0.11098 3.66655,0.70455 1.66964,0.59357 2.77903,1.35629 l -1.59484,3.46685 q -1.00954,-0.75719 -2.23819,-1.17601 -1.17595,-0.46597 -2.52388,-0.54088 -2.44622,-0.13595 -4.01882,1.12873 -1.5199,1.21754 -1.6614,3.76361 -0.0777,1.39784 0.31335,2.4712 0.44097,1.07613 1.14265,1.96643 0.7516,0.89308 1.71121,1.6475 1.00954,0.75718 2.11616,1.56983 1.1066,0.81267 2.25482,1.77787 1.1482,0.9652 2.03016,2.21606 0.93464,1.20373 1.44494,2.83455 0.56298,1.58368 0.44367,3.73037 -0.1082,1.947 -0.80438,3.66101 -0.69618,1.71401 -2.06909,2.98979 -1.32021,1.22863 -3.3116,1.91919 -1.93869,0.64342 -4.53468,0.49915 -2.39631,-0.13318 -4.16301,-0.78221 -1.76671,-0.64904 -3.11462,-1.62534 l 1.59761,-3.51676 q 1.25361,0.87089 2.57379,1.44503 1.37287,0.527 3.17009,0.62688 z"
           style="font-style:normal;font-variant:normal;font-weight:normal;font-stretch:normal;font-size:50px;line-height:125%;font-family:'Ubuntu Condensed';-inkscape-font-specification:'Ubuntu Condensed, ';letter-spacing:1.70000005px;word-spacing:0px;fill:#000000;fill-opacity:1;stroke:none;stroke-width:1px;stroke-linecap:butt;stroke-linejoin:miter;stroke-opacity:1"
           id="path4141-9" />
        <path
           inkscape:connector-curvature="0"
           d="m 298.5473,773.16146 q -0.66287,0.21356 -1.62528,0.41045 -0.90972,0.14975 -1.96642,0.24125 -1.00956,0.14421 -2.06349,0.18579 -1.00678,0.0943 -1.85547,0.0471 -2.04684,-0.11377 -3.71648,-0.70732 -1.67241,-0.54365 -2.80397,-1.80838 -1.13157,-1.26474 -1.66681,-3.34765 -0.53247,-2.13283 -0.35768,-5.27799 l 0.89617,-16.12511 4.29337,0.23861 -0.88784,15.97535 q -0.21364,3.84407 0.84581,5.50541 1.11215,1.61421 3.50844,1.74738 0.79877,0.0444 1.60031,0.0389 0.80432,-0.0555 1.66688,-0.25791 l 1.25407,-22.56517 4.29338,0.23861 -1.41499,25.4607 z"
           style="font-style:normal;font-variant:normal;font-weight:normal;font-stretch:normal;font-size:50px;line-height:125%;font-family:'Ubuntu Condensed';-inkscape-font-specification:'Ubuntu Condensed, ';letter-spacing:1.70000005px;word-spacing:0px;fill:#000000;fill-opacity:1;stroke:none;stroke-width:1px;stroke-linecap:butt;stroke-linejoin:miter;stroke-opacity:1"
           id="path4143-4" />
        <path
           inkscape:connector-curvature="0"
           d="m 333.7843,761.00159 q -0.0555,1.89984 0.15525,3.51403 0.21352,1.56425 0.79593,2.79847 0.63511,1.18707 1.69735,1.89711 1.11216,0.71281 2.85946,0.80992 1.44777,0.0805 2.66811,-0.25233 1.27305,-0.37995 1.83885,-0.64897 l 0.60733,3.48908 q -0.67397,0.41324 -2.24932,0.82646 -1.52822,0.46591 -3.62498,0.34939 -2.74576,-0.1526 -4.58734,-1.25649 -1.79166,-1.10112 -2.88993,-2.96493 -1.04835,-1.86105 -1.40886,-4.38494 -0.3605,-2.52389 -0.19403,-5.51926 0.40231,-7.23883 2.9845,-10.4505 2.58219,-3.21166 6.5261,-2.99248 4.44315,0.24693 6.10441,3.69444 1.66125,3.44749 1.32554,9.48817 -0.0306,0.54915 -0.0638,1.14822 -0.0306,0.54916 -0.11374,1.14546 l -12.43082,-0.69085 z m 4.97588,-11.14106 q -2.14668,-0.1193 -3.26444,1.97189 -1.06784,2.09397 -1.4673,5.67733 l 7.93776,0.44115 q 0.20253,-3.64437 -0.42978,-5.78276 -0.62954,-2.1883 -2.77624,-2.30761 z"
           style="font-style:normal;font-variant:normal;font-weight:normal;font-stretch:normal;font-size:50px;line-height:125%;font-family:'Ubuntu Condensed';-inkscape-font-specification:'Ubuntu Condensed, ';letter-spacing:1.70000005px;word-spacing:0px;fill:#000000;fill-opacity:1;stroke:none;stroke-width:1px;stroke-linecap:butt;stroke-linejoin:miter;stroke-opacity:1"
           id="path4147-5" />
        <path
           inkscape:connector-curvature="0"
           d="m 363.31568,751.47606 q -1.5587,-0.7877 -3.55561,-0.89868 -1.84715,-0.10265 -3.48076,0.45756 l -1.24298,22.36548 -4.29337,-0.23861 1.3928,-25.06132 q 1.48661,-0.61846 3.35873,-0.96511 1.92482,-0.3938 4.17135,-0.26894 1.19815,0.0666 2.38798,0.28293 1.18982,0.21636 2.21602,0.67401 l -0.95416,3.65268 z"
           style="font-style:normal;font-variant:normal;font-weight:normal;font-stretch:normal;font-size:50px;line-height:125%;font-family:'Ubuntu Condensed';-inkscape-font-specification:'Ubuntu Condensed, ';letter-spacing:1.70000005px;word-spacing:0px;fill:#000000;fill-opacity:1;stroke:none;stroke-width:1px;stroke-linecap:butt;stroke-linejoin:miter;stroke-opacity:1"
           id="path4149-9" />
        <path
           inkscape:connector-curvature="0"
           d="m 380.11834,773.28021 q -6.0906,-0.33848 -9.08311,-5.06182 -2.99251,-4.72332 -2.46536,-14.20869 0.26913,-4.84252 1.35363,-8.13742 1.13443,-3.29213 2.89842,-5.29733 1.76399,-2.00521 4.06046,-2.77897 2.29924,-0.82368 4.94517,-0.67663 2.1966,0.12207 4.06039,0.82658 1.86655,0.65458 3.01753,1.56986 l -1.55601,3.66931 q -1.15375,-0.86535 -2.52386,-1.44227 -1.32017,-0.57414 -3.1174,-0.67402 -3.99383,-0.22197 -5.97695,3.023 -1.98035,3.19503 -2.36878,10.18424 -0.3912,7.03914 1.29502,10.93871 1.68621,3.89958 5.97957,4.13819 2.04685,0.11375 3.32267,-0.31611 1.32574,-0.42709 2.56829,-1.15928 l 1.05107,3.6139 q -1.19816,0.8348 -3.1313,1.37837 -1.88322,0.54633 -4.32945,0.41038 z"
           style="font-style:normal;font-variant:normal;font-weight:normal;font-stretch:normal;font-size:50px;line-height:125%;font-family:'Ubuntu Condensed';-inkscape-font-specification:'Ubuntu Condensed, ';letter-spacing:1.70000005px;word-spacing:0px;fill:#000000;fill-opacity:1;stroke:none;stroke-width:1px;stroke-linecap:butt;stroke-linejoin:miter;stroke-opacity:1"
           id="path4151-3" />
        <path
           style="font-style:normal;font-variant:normal;font-weight:normal;font-stretch:normal;font-size:50px;line-height:125%;font-family:'Ubuntu Condensed';-inkscape-font-specification:'Ubuntu Condensed, ';letter-spacing:1.70000005px;word-spacing:0px;fill:#000000;fill-opacity:1;stroke:none;stroke-width:1px;stroke-linecap:butt;stroke-linejoin:miter;stroke-opacity:1"
           d="m 397.67958,772.93969 -4.29336,-0.23861 1.45661,-26.20955 4.29337,0.2386 -1.45662,26.20956 z"
           id="path4257" />
        <path
           style="font-style:normal;font-variant:normal;font-weight:normal;font-stretch:normal;font-size:50px;line-height:125%;font-family:'Ubuntu Condensed';-inkscape-font-specification:'Ubuntu Condensed, ';letter-spacing:1.70000005px;word-spacing:0px;fill:#fa6900;fill-opacity:1;stroke:none;stroke-width:1px;stroke-linecap:butt;stroke-linejoin:miter;stroke-opacity:1"
           d="m 400.24369,734.01419 c -0.12636,0.0646 -0.2114,0.16684 -0.25626,0.30743 -0.0372,0.11549 -0.0253,0.23866 0.0303,0.36864 -0.14245,0.11839 -0.24634,0.27268 -0.30813,0.46637 -0.0812,0.25277 -0.0462,0.52355 0.10462,0.81258 0.15071,0.28907 0.35641,0.47975 0.61737,0.5716 0.26568,0.0752 0.51912,0.0512 0.76088,-0.0726 0.15117,-0.0772 0.26747,-0.18313 0.35588,-0.31103 0.0916,0.0165 0.1807,0.009 0.26534,-0.0342 0.0993,-0.0509 0.16597,-0.12804 0.1993,-0.23186 0.0354,-0.11043 0.0213,-0.22523 -0.0406,-0.34393 -0.053,-0.10155 -0.12345,-0.16893 -0.21098,-0.20624 0.0706,-0.0631 0.12329,-0.1406 0.154,-0.23599 0.0489,-0.15348 0.0303,-0.31237 -0.0554,-0.4771 -0.0859,-0.16474 -0.2048,-0.26868 -0.35622,-0.31163 -0.14872,-0.0525 -0.29159,-0.043 -0.42938,0.0273 -0.0234,0.0122 -0.0433,0.0271 -0.064,0.0411 -0.0123,-0.0366 -0.0273,-0.0735 -0.0466,-0.11074 -0.0787,-0.15087 -0.18776,-0.24577 -0.32647,-0.28512 -0.13631,-0.0481 -0.26738,-0.0394 -0.39358,0.0251 z"
           id="path4153-5"
           inkscape:connector-curvature="0" />
        <path
           inkscape:connector-curvature="0"
           d="m 406.09712,746.22541 q 1.87768,-0.4465 4.04379,-0.67666 2.16888,-0.28008 3.9661,-0.1802 1.94699,0.10821 3.51402,0.74615 1.56978,0.58802 2.59872,1.89713 1.07887,1.31189 1.55864,3.49186 0.53247,2.13283 0.35767,5.27798 l -0.87951,15.82558 -4.29337,-0.23861 0.86009,-15.47611 q 0.21641,-3.89399 -0.68217,-5.74671 -0.89857,-1.85272 -3.64433,-2.00531 -1.44777,-0.0805 -3.27274,0.31888 l -1.24852,22.46533 -4.29338,-0.23861 1.41499,-25.4607 z"
           style="font-style:normal;font-variant:normal;font-weight:normal;font-stretch:normal;font-size:50px;line-height:125%;font-family:'Ubuntu Condensed';-inkscape-font-specification:'Ubuntu Condensed, ';letter-spacing:1.70000005px;word-spacing:0px;fill:#000000;fill-opacity:1;stroke:none;stroke-width:1px;stroke-linecap:butt;stroke-linejoin:miter;stroke-opacity:1"
           id="path4155-7" />
        <path
           inkscape:connector-curvature="0"
           d="m 430.74325,759.77544 q -0.0555,1.89984 0.15526,3.51403 0.21352,1.56425 0.79593,2.79847 0.63511,1.18707 1.69734,1.89711 1.11217,0.71281 2.85947,0.80992 1.44776,0.0805 2.66811,-0.25233 1.27305,-0.37995 1.83885,-0.64897 l 0.60733,3.48908 q -0.67398,0.41324 -2.24933,0.82646 -1.52821,0.46591 -3.62497,0.34939 -2.74576,-0.1526 -4.58734,-1.25649 -1.79167,-1.10112 -2.88994,-2.96493 -1.04834,-1.86105 -1.40885,-4.38494 -0.3605,-2.52389 -0.19403,-5.51926 0.4023,-7.23883 2.9845,-10.4505 2.58219,-3.21166 6.5261,-2.99248 4.44314,0.24693 6.10441,3.69444 1.66125,3.44749 1.32553,9.48817 -0.0306,0.54915 -0.0638,1.14822 -0.0306,0.54916 -0.11374,1.14546 l -12.43082,-0.69085 z m 4.97589,-11.14106 q -2.14669,-0.1193 -3.26445,1.97189 -1.06784,2.09397 -1.4673,5.67733 l 7.93776,0.44115 q 0.20254,-3.64437 -0.42978,-5.78276 -0.62954,-2.1883 -2.77623,-2.30761 z"
           style="font-style:normal;font-variant:normal;font-weight:normal;font-stretch:normal;font-size:50px;line-height:125%;font-family:'Ubuntu Condensed';-inkscape-font-specification:'Ubuntu Condensed, ';letter-spacing:1.70000005px;word-spacing:0px;fill:#000000;fill-opacity:1;stroke:none;stroke-width:1px;stroke-linecap:butt;stroke-linejoin:miter;stroke-opacity:1"
           id="path4157-0" />
        <path
           inkscape:connector-curvature="0"
           d="m 449.10336,745.22501 q 1.77782,-0.45204 3.84409,-0.68775 2.06903,-0.28563 3.76642,-0.1913 1.7473,0.0971 3.12017,0.6241 1.4228,0.52976 2.46284,1.63919 1.34517,-0.77656 2.87337,-1.24248 1.52821,-0.46591 3.32543,-0.36602 1.79724,0.0999 3.21448,0.72949 1.46994,0.58246 2.44896,1.8888 0.97902,1.30634 1.45879,3.48632 0.48255,2.13006 0.30776,5.27521 l -0.87951,15.82557 -4.29338,-0.23861 0.86009,-15.47611 q 0.21641,-3.894 -0.58232,-5.74116 -0.79873,-1.84716 -3.29488,-1.98589 -0.94854,-0.0527 -1.96642,0.24126 -0.96795,0.29674 -1.84994,0.84865 0.33558,1.17042 0.4548,2.62928 0.11923,1.45887 0.0194,3.25609 l -0.87951,15.82559 -4.29338,-0.23861 0.8601,-15.47612 q 0.21641,-3.89399 -0.58232,-5.74116 -0.79873,-1.84717 -3.29488,-1.98589 -1.298,-0.0722 -2.97321,0.33553 l -1.24852,22.46533 -4.29337,-0.23861 1.41499,-25.4607 z"
           style="font-style:normal;font-variant:normal;font-weight:normal;font-stretch:normal;font-size:50px;line-height:125%;font-family:'Ubuntu Condensed';-inkscape-font-specification:'Ubuntu Condensed, ';letter-spacing:1.70000005px;word-spacing:0px;fill:#000000;fill-opacity:1;stroke:none;stroke-width:1px;stroke-linecap:butt;stroke-linejoin:miter;stroke-opacity:1"
           id="path4159-8" />
        <path
           inkscape:connector-curvature="0"
           d="m 483.46399,745.03787 q 1.32852,-0.47702 2.79293,-0.69609 1.46719,-0.269 3.16457,-0.17467 3.49461,0.19421 5.56914,2.51291 2.0773,2.26876 1.82205,6.86167 l -0.96552,17.37319 q -1.82497,0.39935 -3.7387,0.59345 -1.86379,0.19688 -3.66102,0.097 -1.79723,-0.0999 -3.36979,-0.63797 -1.52265,-0.53532 -2.66531,-1.60036 -1.09273,-1.06227 -1.70842,-2.59881 -0.61291,-1.58645 -0.49084,-3.78306 0.11376,-2.04684 0.79608,-3.51123 0.735,-1.51155 1.8888,-2.44897 1.15657,-0.98734 2.682,-1.40334 1.52821,-0.46592 3.27551,-0.36881 1.64745,0.0916 3.62218,0.60192 l 0.13317,-2.39629 q 0.16093,-2.89554 -0.92349,-4.10758 -1.03449,-1.20927 -3.13126,-1.32579 -1.14822,-0.0638 -2.21048,0.12753 -1.00956,0.1442 -2.18552,0.57962 l -0.69608,-3.69432 z m 1.04524,18.13594 q -0.12762,2.29646 1.00949,3.46135 1.13711,1.1649 3.33373,1.28697 1.34791,0.0749 2.96487,-0.18576 l 0.46334,-8.33713 q -1.47549,-0.48262 -2.92326,-0.56308 -0.94853,-0.0527 -1.81109,0.14973 -0.8598,0.15252 -1.53931,0.66561 -0.62683,0.46593 -1.02622,1.34513 -0.39663,0.82926 -0.47155,2.17718 z"
           style="font-style:normal;font-variant:normal;font-weight:normal;font-stretch:normal;font-size:50px;line-height:125%;font-family:'Ubuntu Condensed';-inkscape-font-specification:'Ubuntu Condensed, ';letter-spacing:1.70000005px;word-spacing:0px;fill:#000000;fill-opacity:1;stroke:none;stroke-width:1px;stroke-linecap:butt;stroke-linejoin:miter;stroke-opacity:1"
           id="path4161-1" />
        <g
           id="g4250"
           transform="translate(-4.1328179,-0.95627683)">
          <path
             inkscape:connector-curvature="0"
             style="font-style:normal;font-variant:normal;font-weight:normal;font-stretch:normal;font-size:40px;line-height:125%;font-family:'Ubuntu Condensed';-inkscape-font-specification:'Ubuntu Condensed, ';letter-spacing:0px;word-spacing:0px;fill:#69d2e7;fill-opacity:1;fill-rule:evenodd;stroke:none;stroke-width:1px;stroke-linecap:butt;stroke-linejoin:miter;stroke-opacity:1"
             d="m 314.3305,747.70184 -2.27746,27.25266 c 7.0699,-5.06793 17.35584,-12.44658 17.35584,-12.44658 L 314.3305,747.70184 Z"
             id="path4190-9" />
          <path
             inkscape:connector-curvature="0"
             style="font-style:normal;font-variant:normal;font-weight:normal;font-stretch:normal;font-size:40px;line-height:125%;font-family:'Ubuntu Condensed';-inkscape-font-specification:'Ubuntu Condensed, ';letter-spacing:0px;word-spacing:0px;fill:#fa6900;fill-opacity:1;fill-rule:evenodd;stroke:none;stroke-width:1px;stroke-linecap:butt;stroke-linejoin:miter;stroke-opacity:1"
             d="m 311.37841,748.18948 -3.15935,0.6305 0.92462,26.11717 2.23473,-26.74767 z"
             id="path4188-9" />
          <path
             inkscape:connector-curvature="0"
             style="font-style:normal;font-variant:normal;font-weight:normal;font-stretch:normal;font-size:40px;line-height:125%;font-family:'Ubuntu Condensed';-inkscape-font-specification:'Ubuntu Condensed, ';letter-spacing:0px;word-spacing:0px;fill:#fa6900;fill-opacity:1;fill-rule:evenodd;stroke:none;stroke-width:1px;stroke-linecap:butt;stroke-linejoin:miter;stroke-opacity:1"
             d="m 313.54325,777.68849 -4.19611,3.0156 0.10271,2.89318 4.29586,-0.15156 -0.20246,-5.75722 z"
             id="path4163-9-7" />
        </g>
        <path
           style="fill:#000000;fill-rule:evenodd;stroke:none;stroke-width:1px;stroke-linecap:butt;stroke-linejoin:miter;stroke-opacity:1"
           d="m 393.59813,735.34517 0.52562,8.09323 6.62419,0.41371 1.63293,-8.13977 z"
           id="path4287"
           inkscape:connector-curvature="0" />
        <path
           style="font-style:normal;font-variant:normal;font-weight:normal;font-stretch:normal;font-size:50px;line-height:125%;font-family:'Ubuntu Condensed';-inkscape-font-specification:'Ubuntu Condensed, ';letter-spacing:1.70000005px;word-spacing:0px;fill:#fa6900;fill-opacity:1;stroke:none;stroke-width:1px;stroke-linecap:butt;stroke-linejoin:miter;stroke-opacity:1"
           d="m 396.72517,732.6307 c -0.1262,0.0646 -0.21143,0.16684 -0.25626,0.30741 -0.0372,0.11549 -0.0254,0.23868 0.0303,0.36864 -0.14244,0.1184 -0.24634,0.27271 -0.30812,0.4664 -0.0812,0.25277 -0.0463,0.52353 0.10461,0.8126 0.15071,0.28905 0.3564,0.47973 0.61739,0.57157 0.26565,0.0752 0.51912,0.0512 0.76088,-0.0726 0.15117,-0.0774 0.26747,-0.18314 0.35586,-0.31102 0.0916,0.0165 0.18072,0.009 0.26534,-0.0342 0.0992,-0.0508 0.16597,-0.12804 0.1993,-0.23183 0.0354,-0.11058 0.0216,-0.22526 -0.0404,-0.34396 -0.053,-0.10155 -0.12361,-0.16889 -0.211,-0.20623 0.0706,-0.0631 0.12345,-0.14061 0.15397,-0.23597 0.0489,-0.15347 0.0305,-0.31239 -0.0554,-0.47711 -0.0859,-0.16473 -0.20481,-0.2687 -0.35623,-0.31163 -0.14873,-0.0525 -0.29158,-0.043 -0.42937,0.0273 -0.0233,0.0122 -0.0433,0.0269 -0.064,0.0409 -0.0123,-0.0366 -0.0273,-0.0735 -0.0466,-0.11074 -0.0787,-0.15086 -0.1878,-0.24578 -0.32649,-0.28514 -0.13616,-0.0479 -0.26737,-0.0394 -0.39359,0.0251 z"
           id="path4153-5-0"
           inkscape:connector-curvature="0" />
        <path
           style="font-style:normal;font-variant:normal;font-weight:normal;font-stretch:normal;font-size:50px;line-height:125%;font-family:'Ubuntu Condensed';-inkscape-font-specification:'Ubuntu Condensed, ';letter-spacing:1.70000005px;word-spacing:0px;fill:#69d2e7;fill-opacity:1;stroke:none;stroke-width:1px;stroke-linecap:butt;stroke-linejoin:miter;stroke-opacity:1"
           d="m 400.42257,735.52883 c 0.0525,-0.13172 0.0493,-0.26476 -0.009,-0.40012 -0.0479,-0.11136 -0.138,-0.19638 -0.26548,-0.25757 0.0294,-0.18287 0.006,-0.36742 -0.0749,-0.55393 -0.10522,-0.24373 -0.30973,-0.42465 -0.61347,-0.54303 -0.30375,-0.1184 -0.58411,-0.12667 -0.8411,-0.0222 -0.2496,0.11809 -0.4245,0.30311 -0.52516,0.5553 -0.063,0.15777 -0.0809,0.31391 -0.0634,0.46839 -0.0798,0.0481 -0.14168,0.11242 -0.1773,0.20036 -0.0412,0.10354 -0.0407,0.20565 0.003,0.30571 0.0461,0.10661 0.13203,0.18372 0.25684,0.23232 0.10645,0.0414 0.2042,0.0458 0.29457,0.0179 -0.0107,0.0942 4.4e-4,0.18709 0.0394,0.27904 0.0642,0.14765 0.18258,0.25528 0.35571,0.32273 0.17309,0.0675 0.33102,0.0675 0.4733,-2.7e-4 0.14642,-0.0585 0.24783,-0.15952 0.30527,-0.30321 0.009,-0.0244 0.0158,-0.0485 0.0211,-0.0732 0.0329,0.0198 0.0692,0.0375 0.10813,0.0527 0.15857,0.0619 0.30313,0.0616 0.43349,-10e-4 0.13417,-0.0538 0.22722,-0.14627 0.27974,-0.27798 z"
           id="path4153-5-9"
           inkscape:connector-curvature="0" />
        <path
           style="font-style:normal;font-variant:normal;font-weight:normal;font-stretch:normal;font-size:50px;line-height:125%;font-family:'Ubuntu Condensed';-inkscape-font-specification:'Ubuntu Condensed, ';letter-spacing:1.70000005px;word-spacing:0px;fill:#69d2e7;fill-opacity:1;stroke:none;stroke-width:1px;stroke-linecap:butt;stroke-linejoin:miter;stroke-opacity:1"
           d="m 394.22425,735.78779 c 0.0772,0.11885 0.18792,0.19291 0.3324,0.2229 0.1187,0.0248 0.23995,0.001 0.36349,-0.0686 0.13264,0.12943 0.2968,0.21665 0.4959,0.25798 0.25985,0.0545 0.52553,-0.009 0.79733,-0.18841 0.27179,-0.18002 0.44008,-0.40437 0.50431,-0.67348 0.0472,-0.27207 -0.003,-0.52162 -0.15117,-0.74922 -0.0927,-0.14229 -0.20994,-0.24697 -0.34635,-0.32162 0.006,-0.093 -0.0107,-0.18061 -0.0617,-0.26032 -0.0608,-0.0934 -0.14474,-0.15178 -0.25131,-0.17414 -0.11349,-0.0236 -0.22624,10e-4 -0.33787,0.076 -0.0954,0.0631 -0.15517,0.14046 -0.18321,0.23128 -0.07,-0.0637 -0.15271,-0.10798 -0.2507,-0.1285 -0.15772,-0.0328 -0.31385,10e-4 -0.46876,0.10476 -0.1549,0.10247 -0.24592,0.23163 -0.27291,0.38668 -0.0366,0.15337 -0.0138,0.29445 0.0718,0.42421 0.0153,0.0219 0.0311,0.0404 0.0476,0.0593 -0.0349,0.0158 -0.0705,0.0348 -0.10553,0.0579 -0.14199,0.0942 -0.22496,0.2123 -0.24971,0.35435 -0.0337,0.14045 -0.0107,0.27003 0.0662,0.38884 z"
           id="path4153-5-3"
           inkscape:connector-curvature="0" />
        <path
           style="font-style:normal;font-variant:normal;font-weight:normal;font-stretch:normal;font-size:50px;line-height:125%;font-family:'Ubuntu Condensed';-inkscape-font-specification:'Ubuntu Condensed, ';letter-spacing:1.70000005px;word-spacing:0px;fill:#fa6900;fill-opacity:1;stroke:none;stroke-width:1px;stroke-linecap:butt;stroke-linejoin:miter;stroke-opacity:1"
           d="m 396.88865,734.20187 c -0.12636,0.0646 -0.21143,0.16685 -0.25628,0.30742 -0.0371,0.11549 -0.0253,0.23868 0.0305,0.36865 -0.14244,0.1184 -0.24632,0.27271 -0.30811,0.46641 -0.0812,0.25273 -0.0462,0.52356 0.10462,0.8126 0.15071,0.28903 0.35643,0.47971 0.61739,0.57156 0.26566,0.0752 0.51912,0.0512 0.76086,-0.0727 0.15117,-0.0774 0.26747,-0.18313 0.35588,-0.31103 0.0916,0.0165 0.18072,0.009 0.26532,-0.0342 0.0994,-0.0509 0.16599,-0.12804 0.1993,-0.23183 0.0354,-0.11058 0.0214,-0.22524 -0.0406,-0.34396 -0.0531,-0.10155 -0.1236,-0.16891 -0.21097,-0.20625 0.0706,-0.063 0.1233,-0.14061 0.15398,-0.23597 0.0489,-0.15345 0.0305,-0.31236 -0.0554,-0.47712 -0.0859,-0.1647 -0.2048,-0.26865 -0.3562,-0.31162 -0.14873,-0.0525 -0.29161,-0.0429 -0.4294,0.0274 -0.0233,0.0122 -0.0433,0.0271 -0.0639,0.0411 -0.0122,-0.0366 -0.0273,-0.0735 -0.0466,-0.11074 -0.0787,-0.15087 -0.18775,-0.2458 -0.32647,-0.28516 -0.13617,-0.0481 -0.26737,-0.0392 -0.39358,0.0251 z"
           id="path4153-5-4"
           inkscape:connector-curvature="0" />
      </g>
    </g>
  </g>
</svg>
